<?xml version="1.0" standalone="no"?>
<!DOCTYPE svg PUBLIC "-//W3C//DTD SVG 20010904//EN"
 "http://www.w3.org/TR/2001/REC-SVG-20010904/DTD/svg10.dtd">
<svg version="1.0" xmlns="http://www.w3.org/2000/svg"
 width="1000.000000pt" height="1000.000000pt" viewBox="0 0 1000.000000 1000.000000"
 preserveAspectRatio="xMidYMid meet">
<metadata>
Created by potrace 1.11, written by Peter Selinger 2001-2013
</metadata>
<g transform="translate(0.000000,1000.000000) scale(0.100000,-0.100000)"
fill="#000000" stroke="none">
<path d="M2845 8746 l-2150 -1244 0 -2502 0 -2502 2150 -1244 c1183 -684 2155
-1243 2160 -1243 6 0 978 559 2160 1243 l2150 1244 0 2502 0 2502 -2150 1244
c-1182 684 -2154 1243 -2160 1243 -5 0 -977 -559 -2160 -1243z m2399 -662 c65
-8 171 -26 235 -39 l116 -25 677 0 676 0 33 -27 c18 -15 40 -46 50 -68 42 -94
44 -346 4 -441 -22 -53 -61 -92 -104 -104 -20 -6 -172 -10 -344 -10 l-307 0
65 -82 c174 -221 255 -536 226 -891 -32 -415 -163 -721 -415 -972 -320 -319
-782 -478 -1339 -462 -312 9 -593 84 -780 207 -55 37 -57 36 -118 -47 -85
-115 -129 -238 -129 -365 0 -218 193 -377 499 -408 53 -6 371 -21 706 -35 675
-28 774 -35 952 -71 226 -46 451 -137 610 -246 223 -153 381 -387 435 -647 28
-128 29 -356 3 -491 -130 -686 -689 -1110 -1630 -1237 -189 -25 -808 -25
-1015 0 -744 91 -1205 348 -1371 762 -49 123 -69 238 -69 398 0 403 159 708
536 1028 46 39 84 74 84 78 0 4 -12 13 -27 20 -92 42 -222 152 -289 247 -118
165 -161 354 -135 583 32 268 143 496 377 768 l36 43 -49 67 c-187 255 -273
531 -273 879 0 453 136 826 405 1112 266 283 645 450 1113 492 123 11 402 3
556 -16z"/>
<path d="M4656 7475 c-175 -34 -309 -100 -431 -216 -126 -120 -200 -252 -252
-448 -34 -128 -43 -378 -19 -518 62 -358 283 -597 634 -686 75 -19 114 -22
282 -22 210 1 267 9 398 62 250 99 422 302 497 583 67 252 47 567 -49 775
-109 236 -289 383 -552 451 -127 33 -382 42 -508 19z"/>
<path d="M4160 3654 c-247 -205 -405 -425 -444 -616 -18 -87 -21 -241 -5 -307
42 -185 208 -332 471 -419 286 -94 725 -125 1104 -76 485 62 812 287 900 619
24 94 30 258 11 332 -61 235 -251 381 -577 443 -119 23 -185 27 -755 45 -253
8 -503 17 -555 20 l-95 5 -55 -46z"/>
</g>
</svg>
